<svg xmlns="http://www.w3.org/2000/svg" viewBox="0 0 330 90" class="iconLeft"><!----><!----><!----><g id="c73344a3-314a-4665-9ede-46326d68bc2d" fill="white" transform="matrix(5.054503701547043,0,0,5.054503701547043,84.74911639522789,-2.4885839538411005)"><path d="M4.00 13.34C4.91 13.34 5.66 13.07 6.27 12.60L5.45 11.58C5.09 11.93 4.58 12.13 4.03 12.13C2.73 12.13 1.95 11.14 1.95 9.84C1.95 8.55 2.73 7.57 4.03 7.57C4.58 7.57 5.09 7.77 5.45 8.12L6.27 7.10C5.66 6.64 4.91 6.36 4.00 6.36C1.94 6.36 0.51 7.89 0.51 9.84C0.51 11.81 1.94 13.34 4.00 13.34ZM10.46 6.36C9.67 6.36 9.14 6.74 8.76 7.41L8.59 6.53L7.36 6.53L7.36 13.15L8.78 13.15L8.78 9.70C8.78 8.62 9.35 7.66 10.38 7.66C10.62 7.66 10.84 7.70 11.02 7.79L11.45 6.58C11.27 6.47 10.89 6.36 10.46 6.36ZM14.34 13.34C15.27 13.34 16.14 12.94 16.60 12.31L16.81 13.15L18.01 13.15L18.01 9.19C18.01 7.31 17.03 6.36 15.08 6.36C14.10 6.36 13.29 6.61 12.66 7.10L13.29 8.08C13.72 7.70 14.29 7.51 14.93 7.51C15.98 7.51 16.60 8.01 16.60 8.90L16.60 9.45L16.42 9.39C13.55 8.31 11.97 9.79 11.97 11.21C11.97 12.45 13.02 13.34 14.34 13.34ZM14.76 12.25C13.93 12.25 13.46 11.72 13.46 11.11C13.46 10.34 14.35 9.57 16.41 10.30L16.60 10.35L16.60 10.54C16.60 11.62 15.72 12.25 14.76 12.25ZM23.14 6.36C22.21 6.36 21.50 6.74 21.10 7.32L20.93 6.53L19.69 6.53L19.69 13.15L21.10 13.15L21.10 9.11C21.22 7.95 22.01 7.57 22.75 7.57C23.77 7.57 24.21 8.30 24.21 9.38L24.21 13.15L25.62 13.15L25.62 9.06C25.62 7 24.30 6.36 23.14 6.36ZM28.16 5.26C28.67 5.26 29.08 4.86 29.08 4.36C29.08 3.86 28.67 3.46 28.16 3.46C27.65 3.46 27.24 3.86 27.24 4.36C27.24 4.86 27.65 5.26 28.16 5.26ZM27.48 13.15L28.86 13.15L28.86 6.53L27.48 6.53ZM33.98 13.34C36.06 13.34 37.51 11.81 37.51 9.84C37.51 7.89 36.06 6.36 33.98 6.36C31.86 6.36 30.42 7.89 30.42 9.84C30.42 11.81 31.86 13.34 33.98 13.34ZM33.98 12.13C32.75 12.13 31.89 11.14 31.89 9.84C31.89 8.56 32.75 7.57 33.98 7.57C35.19 7.57 36.05 8.56 36.05 9.84C36.05 11.14 35.19 12.13 33.98 12.13ZM45.16 13.11C47.24 12.50 48.52 10.66 48.52 8.46C48.52 5.75 46.55 3.59 43.57 3.59C40.60 3.59 38.63 5.75 38.63 8.46C38.63 11.17 40.60 13.34 43.57 13.34L43.85 13.34C44.46 15.66 47.09 15.72 48.27 14.70L47.63 13.64C46.86 14.31 45.50 14.28 45.16 13.11ZM40.18 8.46C40.18 6.53 41.49 4.91 43.57 4.91C45.66 4.91 46.97 6.53 46.97 8.46C46.97 10.37 45.66 12.02 43.57 12.02C41.49 12.02 40.18 10.37 40.18 8.46Z"></path></g><!----><g id="f1e63c8f-9e84-4e1a-b7f6-c94d210c5819" transform="matrix(1.730769103800766,0,0,1.730769103800766,-51.80575986233029,-40.02691956102527)" stroke="none" fill="white"><circle cx="49.6" cy="32.3" r="9"></circle><path d="M62.9 41.4c-2.4 0-6.8 5.2-13.1 5.2s-10.9-5.2-13.2-5.2-6.3 1.2-6.3 4.9 2.6 5.6 2.6 5.6l5.2 2.6v2.3s-5.2 8.2-5.2 10.7c0 2.4 2.6 7.8 6.5 7.8 3.8 0 5.2-2.6 5.2-2.6l3.9-7.8H51l4.1 7.8s1.2 2.6 4.9 2.6 6.6-5.2 6.6-7.8c0-2.6-5.2-10.4-5.2-10.4v-2.6l5.2-2.6s2.6-1.7 2.6-5.5c-.2-3.8-4-5-6.3-5z"></path></g><!----></svg>
